<svg id="Layer_3" data-name="Layer 3" xmlns="http://www.w3.org/2000/svg" viewBox="0 0 154.5 87.75"><defs><style>.cls-1,.cls-2,.cls-3{fill:none;stroke:#e6e7e8;stroke-miterlimit:10;}.cls-2{stroke-width:1.01px;}.cls-3{stroke-width:1px;}</style></defs><title>base_black</title><rect class="cls-1" x="28.47" y="-139.98" width="96.01" height="220.5" rx="7.5" ry="7.5"/><path class="cls-1" d="M126.22-19.39a5.28,5.28,0,0,0-4.6-3.09H31.92A5.36,5.36,0,0,0,27.15-19L23-9.63a7.57,7.57,0,0,0-.64,3.06V7h0c0,3.59,2.42,6.5,5.4,6.5h98.82c3,0,5.4-2.91,5.4-6.5h0V-6.35a7.51,7.51,0,0,0-.81-3.41Z"/><circle class="cls-1" cx="120.96" cy="4.48" r="4.9"/><circle class="cls-1" cx="109.21" cy="4.48" r="4.9"/><circle class="cls-1" cx="97.46" cy="4.48" r="4.9"/><circle class="cls-1" cx="85.71" cy="4.48" r="4.9"/><circle class="cls-1" cx="69.96" cy="7.84" r="1.92"/><circle class="cls-1" cx="65.16" cy="7.84" r="1.92"/><circle class="cls-1" cx="60.36" cy="7.84" r="1.92"/><circle class="cls-1" cx="55.56" cy="7.84" r="1.92"/><circle class="cls-1" cx="50.76" cy="7.84" r="1.92"/><circle class="cls-1" cx="63.24" cy="0.58" r="3.84"/><circle class="cls-1" cx="43.36" cy="5.92" r="3.47"/><circle class="cls-1" cx="34.74" cy="7.75" r="2.45"/><rect class="cls-1" x="28.47" y="2.45" width="2.25" height="7.3"/><path class="cls-1" d="M88,80.46c0,6.51-5.28,6.71-11.79,6.71S64.46,87,64.46,80.46a11.79,11.79,0,0,1,23.58,0Z"/><rect class="cls-2" x="30.75" y="16.67" width="91.21" height="48"/><rect class="cls-3" x="38.09" y="16.67" width="77.41" height="40.56"/><line class="cls-2" x1="38.09" y1="57.23" x2="30.75" y2="64.67"/><line class="cls-2" x1="115.5" y1="57.23" x2="121.96" y2="64.67"/></svg>