<svg xmlns="http://www.w3.org/2000/svg" viewBox="0 0 154.5 23.25"><defs><style>.cls-1,.cls-2,.cls-3,.cls-4{fill:none;stroke-miterlimit:10;}.cls-1,.cls-2,.cls-3{stroke:#e6e7e8;}.cls-2{stroke-width:0.97px;}.cls-3{stroke-width:0.91px;}.cls-4{stroke:#7f3f98;}.cls-5{fill:#662d91;}</style></defs><title>Camera_black</title><g id="Layer_3" data-name="Layer 3"><rect class="cls-1" x="28.47" y="-116.73" width="96.01" height="220.5" rx="7.5" ry="7.5"/><path class="cls-1" d="M126.22,3.86a5.28,5.28,0,0,0-4.6-3.09H31.92a5.36,5.36,0,0,0-4.77,3.44L23,13.62a7.57,7.57,0,0,0-.64,3.06V30.27h0c0,3.59,2.42,6.5,5.4,6.5h98.82c3,0,5.4-2.91,5.4-6.5h0V16.9a7.51,7.51,0,0,0-.81-3.41Z"/><line class="cls-1" x1="22.34" y1="15.05" x2="131.96" y2="15.05"/><circle class="cls-1" cx="120.96" cy="27.73" r="4.9"/><circle class="cls-1" cx="109.21" cy="27.73" r="4.9"/><circle class="cls-1" cx="97.46" cy="27.73" r="4.9"/><circle class="cls-1" cx="85.71" cy="27.73" r="4.9"/><circle class="cls-1" cx="29.59" cy="20.69" r="1.92"/><circle class="cls-1" cx="39.9" cy="20.69" r="1.92"/><circle class="cls-1" cx="63.24" cy="23.83" r="3.84"/><line class="cls-1" x1="22.34" y1="17.68" x2="131.96" y2="17.68"/><path class="cls-1" d="M76.47-141.44A17.47,17.47,0,0,0,59-124V4c0,4.82,7.82,8.73,17.47,8.73S93.94,8.82,93.94,4V-124A17.47,17.47,0,0,0,76.47-141.44Z"/><path class="cls-2" d="M93.94-6.6c-2.1,1.8-7.81,3.14-17.47,3.14S60.6-4.82,58.44-6.6L52.06.14V12.66H101V.14Z"/><line class="cls-3" x1="52.06" y1="-0.07" x2="100.96" y2="-0.07"/><circle class="cls-1" cx="76.47" cy="6.82" r="3.84"/></g><g id="Layer_2" data-name="Layer 2"><circle class="cls-4" cx="90.61" cy="6.82" r="4.6"/><line class="cls-4" x1="132" y1="7.4" x2="95.21" y2="7.4"/><path class="cls-5" d="M137.51,1.17a2.57,2.57,0,0,1,2.56,2.59V19.16a2.58,2.58,0,0,1-2.56,2.56h-.67a2.54,2.54,0,0,1-2.56-2.56V3.76a2.53,2.53,0,0,1,2.56-2.59Zm-.67,18h.67V3.76h-.67Z"/><path class="cls-5" d="M143.93,7.6V3.76h-.67V8.9h.67a2.57,2.57,0,0,1,2.59,2.56v7.7a2.59,2.59,0,0,1-2.59,2.56h-.67a2.56,2.56,0,0,1-2.56-2.56V3.76a2.55,2.55,0,0,1,2.56-2.59h.67a2.57,2.57,0,0,1,2.59,2.59V7.6Zm0,3.87h-.67v7.7h.67Z"/></g></svg>