<svg xmlns="http://www.w3.org/2000/svg" viewBox="0 0 154.5 63.61"><defs><style>.cls-1,.cls-2{fill:none;stroke-miterlimit:10;}.cls-1{stroke:#e6e7e8;}.cls-2{stroke:#00aeef;}.cls-3{fill:#00aeef;}</style></defs><title>EGun_black</title><g id="Layer_3" data-name="Layer 3"><path class="cls-1" d="M119.45,30.8a4.62,4.62,0,0,0-4-2.7H36.86a4.7,4.7,0,0,0-4.17,3L29,39.35A6.63,6.63,0,0,0,28.47,42V53.93h0c0,3.14,2.12,5.69,4.73,5.69h86.55c2.61,0,4.73-2.55,4.73-5.69h0V42.22a6.58,6.58,0,0,0-.71-3Z"/><rect class="cls-1" x="28.47" y="36.69" width="96.01" height="220.5" rx="7.5" ry="7.5"/><line class="cls-1" x1="28.57" y1="55.08" x2="124.48" y2="55.08"/><path class="cls-1" d="M76.47,12A17.47,17.47,0,0,0,59,29.44v128c0,4.82,7.82,8.73,17.47,8.73s17.47-3.91,17.47-8.73v-128A17.47,17.47,0,0,0,76.47,12Z"/><path class="cls-1" d="M76.47,4.83c-3.25,0-5.88.88-5.88,2V21.28c0,.55,2.63,1,5.88,1s5.88-.44,5.88-1V6.81C82.35,5.72,79.72,4.83,76.47,4.83Z"/></g><g id="Layer_2" data-name="Layer 2"><circle class="cls-2" cx="70.68" cy="46.24" r="4.6"/><line class="cls-2" x1="131.94" y1="46.24" x2="75.17" y2="46.24"/><path class="cls-3" d="M137.34,35.11a2.57,2.57,0,0,1,2.56,2.59V53.1a2.58,2.58,0,0,1-2.56,2.56h-.67a2.54,2.54,0,0,1-2.56-2.56V37.7a2.53,2.53,0,0,1,2.56-2.59Zm-.67,18h.67V37.7h-.67Z"/><path class="cls-3" d="M144.41,35.11V55.66h-2.59v-18h-1.28a2.55,2.55,0,0,1,2.56-2.59Z"/></g></svg>