<svg xmlns="http://www.w3.org/2000/svg" viewBox="0 0 154.5 22.6"><defs><style>.cls-1,.cls-2,.cls-3{fill:none;stroke-miterlimit:10;}.cls-1,.cls-2{stroke:#e6e7e8;}.cls-2{stroke-width:0.25px;}.cls-3{stroke:#f7941d;}.cls-4{fill:#f7941d;}</style></defs><title>Obj Lens_black</title><g id="Layer_3" data-name="Layer 3"><rect class="cls-1" x="28.47" y="-49.52" width="96.01" height="220.5" rx="7.5" ry="7.5"/><rect class="cls-2" x="42.59" y="19.87" width="11.08" height="10.08"/><rect class="cls-2" x="43.07" y="20.31" width="10.12" height="9.21"/><rect class="cls-2" x="31.99" y="19.87" width="11.08" height="10.08"/><rect class="cls-2" x="32.47" y="20.31" width="10.12" height="9.21"/><path class="cls-1" d="M76.47-74.24A17.47,17.47,0,0,0,59-56.77v128c0,4.82,7.82,8.73,17.47,8.73S93.94,76,93.94,71.2v-128A17.47,17.47,0,0,0,76.47-74.24Z"/></g><g id="Layer_2" data-name="Layer 2"><circle class="cls-3" cx="67.08" cy="16" r="4.6"/><line class="cls-3" x1="62.48" y1="16" x2="25" y2="16"/><path class="cls-4" d="M12.76,1a2.57,2.57,0,0,1,2.56,2.59V19a2.58,2.58,0,0,1-2.56,2.56h-.67A2.54,2.54,0,0,1,9.53,19V3.62A2.53,2.53,0,0,1,12.09,1Zm-.67,18h.67V3.62h-.67Z"/><path class="cls-4" d="M19.19,1a2.57,2.57,0,0,1,2.56,2.59V19a2.58,2.58,0,0,1-2.56,2.56h-.67A2.56,2.56,0,0,1,16,19V12.58h2.56V19h.67v-7.7h-2V8.77h2V3.62h-.67V7.46H16V3.62A2.55,2.55,0,0,1,18.52,1Z"/></g></svg>