<svg xmlns="http://www.w3.org/2000/svg" viewBox="0 0 154.5 22.6"><defs><style>.cls-1{fill:#fff;stroke:#231f20;}.cls-1,.cls-2,.cls-3{stroke-miterlimit:10;}.cls-2,.cls-3{fill:none;}.cls-2{stroke:#e6e7e8;}.cls-3{stroke:#be1e2d;}.cls-4{fill:#be1e2d;}</style></defs><title>Specimen</title><g id="Layer_1" data-name="Layer 1"><rect class="cls-1" x="28.47" y="-26.92" width="96.01" height="220.5" rx="7.5" ry="7.5"/><circle class="cls-1" cx="41.46" cy="4.97" r="1.92"/><circle class="cls-1" cx="41.46" cy="11.72" r="1.92"/><path class="cls-1" d="M76.47-51.64A17.47,17.47,0,0,0,59-34.17v128c0,4.82,7.82,8.73,17.47,8.73s17.47-3.91,17.47-8.73v-128A17.47,17.47,0,0,0,76.47-51.64Z"/></g><g id="Layer_3" data-name="Layer 3"><rect class="cls-2" x="28.47" y="-26.92" width="96.01" height="220.5" rx="7.5" ry="7.5"/><circle class="cls-2" cx="41.46" cy="4.97" r="1.92"/><circle class="cls-2" cx="41.46" cy="11.72" r="1.92"/><path class="cls-2" d="M76.47-51.64A17.47,17.47,0,0,0,59-34.17v128c0,4.82,7.82,8.73,17.47,8.73s17.47-3.91,17.47-8.73v-128A17.47,17.47,0,0,0,76.47-51.64Z"/></g><g id="Layer_2" data-name="Layer 2"><circle class="cls-3" cx="87.1" cy="13.89" r="4.6"/><line class="cls-3" x1="132" y1="13.89" x2="91.26" y2="13.89"/><path class="cls-4" d="M137.18,1.08a2.57,2.57,0,0,1,2.56,2.59V19.07a2.58,2.58,0,0,1-2.56,2.56h-.67a2.54,2.54,0,0,1-2.56-2.56V3.67a2.53,2.53,0,0,1,2.56-2.59Zm-.67,18h.67V3.67h-.67Z"/><path class="cls-4" d="M142.93,19.07h.67V12.62h2.56v9h-5.79V11.37a2.53,2.53,0,0,1,2.56-2.56h.67V3.67h-.67V7.5h-2.56V3.67a2.53,2.53,0,0,1,2.56-2.59h.67a2.57,2.57,0,0,1,2.56,2.59V8.81a2.58,2.58,0,0,1-2.56,2.56h-.67Z"/></g></svg>